<?xml version="1.0" encoding="UTF-8" standalone="no"?>
<svg
   xmlns:dc="http://purl.org/dc/elements/1.1/"
   xmlns:cc="http://creativecommons.org/ns#"
   xmlns:rdf="http://www.w3.org/1999/02/22-rdf-syntax-ns#"
   xmlns:svg="http://www.w3.org/2000/svg"
   xmlns="http://www.w3.org/2000/svg"
   xmlns:sodipodi="http://sodipodi.sourceforge.net/DTD/sodipodi-0.dtd"
   xmlns:inkscape="http://www.inkscape.org/namespaces/inkscape"
   height="157.1351"
   viewBox="0 0 413.48315 161.16421"
   width="400"
   class="xing-logostyles__Svg-sc-12edqlg-1 etYQdf"
   version="1.1"
   style="color:#006567;text-decoration:none;text-decoration-line:none;text-decoration-style:solid;text-decoration-color:#006567;inline-size:89px"
   id="svg8"
   sodipodi:docname="Xing Logo 07.2021.svg"
   inkscape:version="1.0.2-2 (e86c870879, 2021-01-15)">
  <metadata
     id="metadata14">
    <rdf:RDF>
      <cc:Work
         rdf:about="">
        <dc:format>image/svg+xml</dc:format>
        <dc:type
           rdf:resource="http://purl.org/dc/dcmitype/StillImage" />
        <dc:title></dc:title>
      </cc:Work>
    </rdf:RDF>
  </metadata>
  <defs
     id="defs12" />
  <sodipodi:namedview
     pagecolor="#ffffff"
     bordercolor="#666666"
     borderopacity="1"
     objecttolerance="10"
     gridtolerance="10"
     guidetolerance="10"
     inkscape:pageopacity="0"
     inkscape:pageshadow="2"
     inkscape:window-width="1600"
     inkscape:window-height="837"
     id="namedview10"
     showgrid="false"
     fit-margin-top="0"
     fit-margin-left="0"
     fit-margin-right="0"
     fit-margin-bottom="0"
     inkscape:zoom="3.7364835"
     inkscape:cx="258.02565"
     inkscape:cy="91.570349"
     inkscape:window-x="-8"
     inkscape:window-y="-8"
     inkscape:window-maximized="1"
     inkscape:current-layer="svg8"
     inkscape:document-rotation="0" />
  <path
     fill="currentColor"
     d="M 42.514956,90.930139 59.1171,59.520676 c 0.897414,-1.794826 1.34612,-2.692239 3.589653,-2.692239 h 17.948265 c 0.897413,0 1.34612,0.448706 1.794826,0.897413 0,0.448706 0.448707,0.448706 0.448707,0.897413 0,0.448707 0,0.897413 -0.448707,0.897413 l -26.024983,47.562904 27.371103,49.80643 c 0,0.44871 0.448707,0.89742 0.448707,0.89742 0,0.4487 0,0.89741 -0.448707,0.89741 -0.448707,0.44871 -0.897413,0.89741 -1.794826,0.89741 H 64.052873 c -2.243533,0 -2.69224,-1.34612 -3.589653,-2.69224 L 42.066249,123.23702 23.669278,156.89001 c -0.897413,1.79483 -1.34612,2.69224 -3.589653,2.69224 H 2.1313564 c -0.8974141,0 -1.34612096,-0.4487 -1.79482644,-0.89741 -0.44870661,-0.44871 -0.44870661,-1.34612 0,-2.24353 L 27.707638,106.63487 2.5800675,59.969383 c -0.4487066,-0.897413 -0.4487066,-1.34612 0,-2.243533 0.4487066,-0.448707 0.8974132,-0.897413 1.7948264,-0.897413 H 22.323158 c 2.243533,0 2.69224,1.346119 3.589653,2.692239 z M 181.1653,118.74995 V 59.520676 c 0,-1.34612 0.89741,-2.692239 2.69224,-2.692239 h 14.35861 c 1.34612,0 2.69224,0.897413 2.69224,2.692239 v 98.266754 c 0,1.34612 -0.89741,2.69224 -2.69224,2.69224 h -14.80732 c -1.79483,0 -3.14095,-1.34612 -3.58965,-2.69224 L 149.30713,98.558147 v 59.229283 c 0,1.34612 -0.89742,2.69224 -2.69224,2.69224 h -14.35861 c -1.34612,0 -2.69224,-0.89742 -2.69224,-2.69224 V 59.520676 c 0,-1.34612 1.34612,-2.692239 2.69224,-2.692239 h 14.80732 c 2.24353,0 2.69223,1.346119 3.58965,2.692239 z M 94.116216,157.78743 V 59.520676 c 0,-1.34612 0.897413,-2.692239 2.69224,-2.692239 h 14.358614 c 1.34612,0 2.69224,0.897413 2.69224,2.692239 v 98.266754 c 0,1.34612 -0.89742,2.69224 -2.69224,2.69224 H 96.808456 c -1.794827,0 -2.69224,-1.34612 -2.69224,-2.69224 z M 259.24025,73.430581 c -7.62801,0 -13.90991,1.794827 -18.84568,8.525426 -4.48707,6.281892 -7.17931,14.358611 -7.17931,26.024983 0,11.21767 0.44871,20.1918 4.48707,26.02499 3.58965,5.83318 9.87155,9.87154 17.49956,9.87154 8.52542,0 14.80732,-2.24353 14.80732,-2.24353 v -21.98662 h -14.80732 c -1.34612,0 -2.69224,-1.34612 -2.69224,-2.69224 v -12.56379 c 0,-1.34612 0.89741,-2.69224 2.69224,-2.69224 h 31.85817 c 1.34612,0 2.69224,1.34612 2.69224,2.69224 v 49.80643 c -0.89742,0.44871 -16.60215,8.07672 -35.44783,8.07672 -15.70473,0 -24.67886,-5.83318 -30.96075,-14.35861 -7.17931,-9.42284 -9.87155,-25.12757 -9.87155,-39.48618 0,-10.320253 1.34612,-19.743094 4.93578,-27.819813 3.58965,-8.525426 9.87154,-15.256025 16.15343,-18.845678 7.17931,-4.038359 15.70474,-5.833186 24.23016,-5.833186 h 2.24353 c 13.0125,0 20.64051,3.140947 23.33275,4.487066 2.24353,0.897414 2.69224,1.794827 2.69224,3.140947 v 12.115078 c 0,0.897413 -0.44871,1.34612 -0.89742,1.794827 -0.4487,0.448706 -1.34612,0.448706 -1.79482,0.448706 -4.93577,-1.794826 -12.56503,-4.647131 -22.88404,-4.487066 z"
     style="color:#006567;text-decoration:none;text-decoration-line:none;text-decoration-style:solid;text-decoration-color:#006567;fill:#006567;stroke-width:4.48707"
     id="path2"
     sodipodi:nodetypes="ccsscscccccsscccsssccccsscccsssssssccsssssssccsssssssssccscsccsssssscscsccsscssscscc" />
  <path
     fill="#B0D400"
     d="m 394.74964,-0.15730337 c -2.24353,0 -3.58965,1.34611977 -4.48706,3.14094627 0,0 -34.55041,61.4728061 -35.89653,63.2676321 l 22.88404,41.729715 c 0.89741,1.34612 2.24353,3.14095 4.48706,3.14095 h 16.15344 c 0.89741,0 1.79483,-0.44871 2.24353,-0.89741 0.44871,-0.89742 0.44871,-1.79483 0,-2.69224 L 377.69879,66.251275 413.14662,3.4323495 c 0.4487,-0.8974132 0.4487,-1.7948265 0,-2.69223967 -0.44871,-0.4487066 -1.34612,-0.8974132 -2.24354,-0.8974132 z"
     style="color:#006567;text-decoration:none;text-decoration-line:none;text-decoration-style:solid;text-decoration-color:#006567;fill:#b0d400;stroke-width:4.48707"
     id="path4" />
  <path
     fill="currentColor"
     d="m 327.44365,21.829321 c -0.89741,0 -1.79482,0.448707 -2.24353,0.897413 -0.44871,0.897413 -0.44871,1.794827 0,2.69224 l 10.76896,18.845677 -16.60215,30.063343 c -0.4487,0.897414 -0.4487,1.794827 0,2.69224 0.44871,0.448707 1.34612,0.897413 2.24354,0.897413 h 15.70473 c 2.24353,0 3.58965,-1.794826 4.48706,-3.140946 0,0 16.60215,-29.614636 17.49956,-30.51205 L 348.08416,24.970267 c -0.89742,-1.34612 -2.24354,-3.140946 -4.48707,-3.140946 z"
     style="color:#006567;text-decoration:none;text-decoration-line:none;text-decoration-style:solid;text-decoration-color:#006567;fill:#006567;stroke-width:4.48707"
     id="path6" />
</svg>
